<svg xmlns="http://www.w3.org/2000/svg" xmlns:xlink="http://www.w3.org/1999/xlink" width="80" height="75" viewBox="0 0 80 75">
  <defs>
    <clipPath id="clip-path">
      <rect id="Rectangle_9" data-name="Rectangle 9" width="80" height="75" rx="37.5"/>
    </clipPath>
  </defs>
  <g id="Mask_Group_1" data-name="Mask Group 1" clip-path="url(#clip-path)">
    <path id="Path_2" data-name="Path 2" d="M23.835,9.669l-6.78-6.32A3.053,3.053,0,0,0,14.843,2.5a3.242,3.242,0,0,0-2.213.88L5.566,10.122a.494.494,0,0,0,0,.747l.028.027a.573.573,0,0,0,.794,0l7.064-6.746a2.058,2.058,0,0,1,1.333-.56h.057a2.1,2.1,0,0,1,1.362.533l6.809,6.32a1.831,1.831,0,0,1,.6,1.307V19a2.458,2.458,0,0,1-2.525,2.373H8.488a2.488,2.488,0,0,1-2.553-2.4v-4.8a.553.553,0,0,0-.567-.533h0a.553.553,0,0,0-.567.533V19a3.622,3.622,0,0,0,3.716,3.493h12.6A3.575,3.575,0,0,0,24.8,19.028V11.748A2.961,2.961,0,0,0,23.835,9.669Z" transform="translate(23.806 21.223)" fill="#737373"/>
  </g>
</svg>
